<svg version="1.1" xmlns="http://www.w3.org/2000/svg" xmlns:xlink="http://www.w3.org/1999/xlink" width="512.000000pt" height="512.000000pt" viewBox="0,0,256,256"><g fill="#ffffff" fill-rule="nonzero" stroke="none" stroke-width="1" stroke-linecap="butt" stroke-linejoin="miter" stroke-miterlimit="10" stroke-dasharray="" stroke-dashoffset="0" font-family="none" font-weight="none" font-size="none" text-anchor="none" style="mix-blend-mode: normal"><g transform="translate(0.01925,0.04381) scale(0.5,0.5)"><g transform="translate(0,512) scale(0.1,-0.1)"><path d="M2325,3984c-674,-70 -1257,-338 -1706,-784c-104,-103 -148,-154 -183,-215c-131,-227 -152,-486 -57,-731c48,-123 115,-216 254,-351c419,-404 949,-661 1552,-750c169,-25 581,-25 750,0c305,45 586,132 850,261c94,46 211,110 260,141c236,148 522,401 616,544c184,281 184,641 0,922c-63,96 -259,287 -418,406c-375,282 -810,463 -1293,538c-101,16 -531,29 -625,19zM2757,3359c417,-95 700,-511 632,-929c-27,-171 -112,-335 -239,-460c-328,-323 -862,-323 -1190,0c-277,273 -328,689 -124,1017c193,310 554,456 921,372z"></path><path d="M2485,3059c-212,-26 -391,-185 -440,-390c-62,-263 96,-524 365,-603c72,-22 218,-22 290,0c183,54 323,198 365,375c81,346 -216,663 -580,618zM2668,2667c60,-58 67,-146 15,-207c-35,-42 -74,-60 -130,-60c-184,0 -211,271 -30,309c49,11 108,-6 145,-42z"></path></g></g></g></svg>