<?xml version="1.0" standalone="no"?>
<!DOCTYPE svg PUBLIC "-//W3C//DTD SVG 20010904//EN"
 "http://www.w3.org/TR/2001/REC-SVG-20010904/DTD/svg10.dtd">
<svg version="1.0" xmlns="http://www.w3.org/2000/svg"
 width="512.000000pt" height="512.000000pt" viewBox="0 0 512.000000 512.000000"
 preserveAspectRatio="xMidYMid meet">

<g transform="translate(0.000000,512.000000) scale(0.100000,-0.100000)"
fill="#000000" stroke="none">
<path d="M4215 4415 c-31 -11 -382 -357 -1771 -1747 -1520 -1521 -1734 -1738
-1743 -1773 -30 -118 76 -225 194 -194 34 9 92 62 380 349 l340 338 55 -25
c158 -71 391 -137 595 -169 147 -22 440 -22 590 0 528 80 1050 352 1399 728
213 229 330 456 330 638 0 278 -285 668 -696 953 l-88 61 304 306 c330 331
336 338 316 424 -8 36 -48 89 -80 106 -32 16 -86 19 -125 5z m-943 -1490 c128
-247 112 -564 -42 -798 -204 -313 -587 -443 -939 -318 -42 14 -99 39 -125 55
l-48 28 117 118 117 117 52 -19 c28 -11 85 -22 126 -25 234 -17 452 151 501
384 15 73 7 183 -19 248 l-19 50 116 118 c129 130 119 128 163 42z"/>
<path d="M2400 3940 c-472 -39 -948 -237 -1333 -553 -278 -229 -479 -513 -523
-739 -16 -83 -16 -93 0 -175 21 -109 89 -254 177 -378 35 -49 125 -152 201
-227 111 -112 142 -138 165 -138 24 0 81 53 353 325 l325 325 1 158 c0 113 5
172 16 212 63 216 173 368 345 480 143 94 251 123 455 124 l158 1 220 220
c147 147 220 227 220 241 0 34 -29 50 -125 72 -206 47 -466 68 -655 52z"/>
</g>
</svg>
